#!OML:ASF F:\VICON\USERDATA\INSTALL\rory3\rory3.ASF
:FULLY-SPECIFIED
:DEGREES
88
root 0.5116605943819147 17.405957495074464 10.454229479763645 8.045630648698602 -0.9177038919274583 -0.9502465911335211
lfemur -20.628781871082357 9.781065944413163 -18.752737154563725
ltibia 37.16041297065641
lfoot -9.316015026744445 4.807887923501159
ltoes -7.06404580227664
rfemur -19.21926640515898 -2.0373586008010918 18.202552881944634
rtibia 27.353949937497752
rfoot -16.670248588615486 0.3179540018448712
rtoes 8.524274081861769
lowerback 0.6367882697226104 0.26653890468923436 -0.8648174898799917
upperback 3.8411826842435417 0.28989385585971694 1.058253113242443
thorax 2.3409541849883277 0.08920837159094638 1.0344316002794163
lowerneck -11.704384301826204 -0.5017902429951622 -1.895923713239482
upperneck 30.333271067614195 -1.0372659005966927 1.941682062186182
head 11.992136301839981 -0.42592807861904336 0.8300385342855748
lclavicle 1.0920847174194235e-15 -2.2179765305637867e-15
lhumerus -16.89282825357775 -2.444084759978472 82.7433675455482
lradius 25.44607307622072
lwrist 21.315755308038877
lhand -24.03330067900465 -7.15843308797006
lfingers 7.12502
lthumb 2.737937520153212 23.569646291804144
rclavicle 1.094567457635584e-15 -2.21483963823925e-15
rhumerus -30.203707324876298 -18.675996617962987 -75.76095062492469
rradius 30.44246939773794
rwrist 37.64670676664802
rhand -19.093691891783035 -26.54468451732791
rfingers 7.12502
rthumb 7.092288755060646 -56.508862912837415
89
root 0.5346110747666739 17.435814447711376 10.46676884927766 7.975785159157125 -0.9512986925126735 -0.8895515488271754
lfemur -20.02977376543841 9.88302896256774 -19.00010963082249
ltibia 35.9065185156637
lfoot -8.84530028439838 4.408980680553029
ltoes -7.402612314521021
rfemur -19.5603536261609 -2.5719394291635775 17.984242556827024
rtibia 26.85251821619066
rfoot -17.007573597742198 0.8563056466267387
rtoes 8.694809174904693
lowerback 0.11354616039911303 0.2713950277492824 -0.6369530913239756
upperback 3.7920655085558947 0.28762828757727177 1.1591653340806403
thorax 2.5370343064890357 0.1280847796494093 1.0117241472338945
lowerneck -11.660285402705934 -0.5463139978162146 -1.9726467904849172
upperneck 30.185562529243626 -1.0929214465331671 1.907146438363883
head 11.857788930481155 -0.45077029224632 0.8177155652159163
lclavicle 1.092865610495474e-15 -2.217114017660069e-15
lhumerus -17.096019108764185 -6.125441422561301 83.68893715303491
lradius 27.067799000404975
lwrist 23.375485405473043
lhand -23.325360033040823 -6.396326369362958
lfingers 7.12502
lthumb 3.1321002189921505 24.21933542290091
rclavicle 1.095623141453235e-15 -2.21353571376057e-15
rhumerus -30.251520968230327 -18.908270404178722 -75.50812052723323
rradius 30.06436760154743
rwrist 37.47253568299571
rhand -18.59871407711501 -26.38704358805516
rfingers 7.12502
rthumb 7.63531324672387 -56.36142631755703
90
root 0.5463170974941731 17.468921991873245 10.324384885697961 8.14336511162573 -0.9706846656707127 -0.8931525922756409
lfemur -20.01737993515265 9.808944248189606 -19.238581268791126
ltibia 36.09566854152932
lfoot -8.100316987947462 4.292692821286634
ltoes -7.551621808601478
rfemur -20.009084156322672 -2.6687049536737746 17.884678515575217
rtibia 27.374333155218377
rfoot -16.974642852026204 0.98656324990186
rtoes 8.976741961779402
lowerback -0.07975012217279909 0.2513608990720269 -0.3443375340547794
upperback 3.863989928320726 0.297656324632002 1.3106909984931496
thorax 2.4958173754294037 0.13569011379045154 1.033012533704453
lowerneck -11.707091573457935 -0.5739407855234182 -2.0389803964467643
upperneck 30.109399136859743 -1.1012247089998033 1.9021480759963934
head 11.881949060633826 -0.4429953361812769 0.820253379244979
lclavicle 1.0917042163030296e-15 -2.2184700154537393e-15
lhumerus -17.51354791087535 -9.181861777825759 84.67799768096826
lradius 29.053074003739557
lwrist 24.658938937226328
lhand -22.814786530715363 -5.856884117892292
lfingers 7.12502
lthumb 3.2797591255141345 24.529347190278507
rclavicle 1.0953239985593553e-15 -2.2139093712142966e-15
rhumerus -29.953968337414977 -18.90956977952707 -75.52761149071664
rradius 30.158085305142798
rwrist 37.21405206187848
rhand -18.17539186119019 -26.28223328382749
rfingers 7.12502
rthumb 8.054677237025771 -56.25075918988781
91
root 0.558517289712551 17.51792551223925 10.272842149970552 8.381951748339333 -0.9682681633702402 -0.9853320673712567
lfemur -20.282059678346585 9.675635927293218 -19.42069128907208
ltibia 37.21811923078269
lfoot -7.4247014612506455 3.902596767551462
ltoes -7.575571774632565
rfemur -19.829094215423357 -2.6105448549530585 17.893912013438023
rtibia 27.28133826044287
rfoot -16.717977302015743 0.39153866843624563
rtoes 9.076731090274626
lowerback -0.2556645325463933 0.24362788885504305 -0.027531539784351133
upperback 4.010723162659085 0.326579934278605 1.4523986946897915
thorax 2.4107050504450185 0.1234681464210782 1.1100700490630546
lowerneck -11.807271895687931 -0.5897310804268127 -2.1013212718940064
upperneck 30.171308325273 -1.0862044087164413 1.8871175237639592
head 11.936476923493199 -0.4322745275654354 0.8150730917719211
lclavicle 1.0920159305905347e-15 -2.21781884996362e-15
lhumerus -17.877918495774885 -10.762518496183063 85.68671737676216
lradius 30.679359050216476
lwrist 25.642210893833088
lhand -22.489755042647936 -5.372832118456843
lfingers 7.12502
lthumb 3.327315824770677 24.670352977142628
rclavicle 1.0937439031217729e-15 -2.2158708892976745e-15
rhumerus -29.389169110646463 -18.341272095756455 -75.77564774750317
rradius 30.31240726030288
rwrist 36.59926191938493
rhand -17.76252727604847 -26.296914072640664
rfingers 7.12502
rthumb 8.538768685942912 -56.176693119709654
92
root 0.5752195325250361 17.503619329983163 10.437509864648934 8.168749726546851 -1.0328574664520822 -1.035319313508546
lfemur -21.062016475567177 9.58378735798621 -19.577865869954913
ltibia 38.850543675494066
lfoot -6.734749743880997 3.915617182613127
ltoes -7.101486626809834
rfemur -20.019274201471173 -2.8103043660150027 17.986386598657703
rtibia 27.285868288288636
rfoot -16.8196359363322 0.09964451541951913
rtoes 9.200917614652596
lowerback -0.257501143417203 0.2850425429903234 0.12659764669588264
upperback 4.284751503085687 0.3597946186113308 1.5530792057670244
thorax 2.4702659434558507 0.14561646759598917 1.195098829484945
lowerneck -11.901233944936417 -0.62780940591931 -2.134340353875632
upperneck 30.36810896192002 -1.1089470344573473 1.9411391304885244
head 11.981328229287737 -0.4282095908646897 0.8299020016530437
lclavicle 1.0924767219936106e-15 -2.2170826616312425e-15
lhumerus -17.99203537697639 -10.153841269523861 86.15594624897535
lradius 31.46542868900631
lwrist 27.094500365422295
lhand -22.4038725976217 -5.206024686412619
lfingers 7.12502
lthumb 3.12963074743266 24.71223340970006
rclavicle 1.0930902636937403e-15 -2.2166849341716486e-15
rhumerus -28.718552050433424 -17.478915426346386 -75.99838074081684
rradius 30.448397284654646
rwrist 35.82746098843673
rhand -17.386821804715698 -26.263590014594563
rfingers 7.12502
rthumb 8.94933944623676 -56.08177686768145
93
root 0.5830194397168322 17.487521553119638 10.08042568998192 7.571766089330316 -1.3062713473557115 -0.8813707770434579
lfemur -21.671937981611944 9.634570827606534 -19.851406387061516
ltibia 40.15745957441926
lfoot -6.799843556852663 3.6180721745956044
ltoes -7.4570467669378555
rfemur -20.25869823063154 -2.9290845095175464 17.808500997594614
rtibia 27.568837030819534
rfoot -16.849462828920547 -0.11388857135667019
rtoes 9.234077084383653
lowerback 0.08243338478925832 0.39760257899543083 0.010877152744339091
upperback 4.644045519067972 0.4669551048219063 1.5104089523179498
thorax 2.642956265193138 0.20000392361939365 1.2452109426407296
lowerneck -11.908659825969115 -0.6364987316586944 -2.1444340502483943
upperneck 30.38045124378482 -1.091416078662304 1.9122806609838976
head 12.0330839898665 -0.40903785120006125 0.8262830725777199
lclavicle 1.0940666963302457e-15 -2.215116544490701e-15
lhumerus -18.081622800696305 -8.809685783983845 86.13215885079985
lradius 31.078318934026413
lwrist 27.197585710146964
lhand -22.50911738547772 -5.112806073646329
lfingers 7.12502
lthumb 2.833711762707303 24.642282046326915
rclavicle 1.09475547278383e-15 -2.214618989350938e-15
rhumerus -27.903459483149042 -16.35808999088874 -76.41487940480485
rradius 30.85282759555029
rwrist 35.1061565802569
rhand -17.057280502048847 -26.230469521307874
rfingers 7.12502
rthumb 9.174853430556414 -56.066429515263735
94
root 0.596630489360477 17.542141852648324 9.821306822572785 7.511993048814649 -1.391979388042527 -1.0506180986444578
lfemur -22.041148229159365 9.661649040891321 -19.799162264327233
ltibia 41.14540514075769
lfoot -7.2035609003015875 3.4403309519701986
ltoes -9.257090650602105
rfemur -19.884043208117642 -3.1148129760608927 17.979871434921883
rtibia 27.229699952071933
rfoot -16.678889088317273 -0.11482424256486246
rtoes 9.358587835795637
lowerback 0.21780919434261103 0.36058451178829026 0.1784856550823986
upperback 4.7861743675843975 0.4394671026702688 1.5305708223790417
thorax 2.976016106710715 0.18023294966129724 1.2072346300005243
lowerneck -11.910311299126677 -0.6063065152625212 -2.1433262406398974
upperneck 30.236256728321962 -1.0284124024848635 1.8357781116813192
head 11.978458706749787 -0.3787822263313429 0.811776843652388
lclavicle 1.0938446852320584e-15 -2.2153285803064676e-15
lhumerus -18.463428592175486 -7.527027661961489 85.92763118717485
lradius 29.92475188170613
lwrist 26.069981904119835
lhand -22.63488310417302 -5.031092361381337
lfingers 7.12502
lthumb 2.683569188593366 24.72776435955804
rclavicle 1.0933855054638502e-15 -2.216313389746471e-15
rhumerus -27.22949616784011 -14.93910831657293 -76.84183850666838
rradius 31.247332660835976
rwrist 34.32979020689434
rhand -16.88785819948578 -26.222250138077563
rfingers 7.12502
rthumb 9.31544007268779 -56.10775913303983
